<svg xmlns="http://www.w3.org/2000/svg" version="1.1" xmlns:xlink="http://www.w3.org/1999/xlink" xmlns:svgjs="http://svgjs.dev/svgjs" width="100%" height="100%" viewBox="0 0 1000 600"><rect width="1000" height="600" x="0" y="0" fill=" #78BE21"/><g><circle r="166.66666666666666" cx="350.9062296549479" cy="373.128435590821" fill="#FFFF" transform="matrix(0.6784644759093282,0,0,0.6784644759093282,0,46.845601511309084)"/><path d="M248.51461007324338 448.1284060234988L248.51461007324338 448.1284060234988Q247.6177491217636 447.23154507201906 247.6177491217636 444.76517745544965L247.6177491217636 444.76517745544965Q247.6177491217636 441.59413337700323 248.51461007324338 441.59413337700323L248.51461007324338 441.59413337700323Q251.20519292768276 441.59413337700323 255.4973131954789 440.4730571876535Q259.75740271500786 439.35198099830376 261.3589401283647 437.3340438574742L261.3589401283647 437.3340438574742Q263.8253077449341 434.1629997790278 266.41979835457204 428.9740185597519Q269.01428896421 423.8170680887431 271.92908705651934 416.1617192528978L271.92908705651934 416.1617192528978L311.10269218722584 315.48907744929136Q312.4800143627127 312.093818132975 312.800321845384 310.74852670575535Q313.1526600763225 309.40323527853565 313.4729675589939 308.37825133398735Q313.8253057899324 307.3852981377062 314.94638197928214 304.8868997728696L314.94638197928214 304.8868997728696Q316.5158886443718 301.7478864426903 318.0853953094613 299.95416453973075Q319.68693272281814 298.12841188850405 323.2743765287373 298.12841188850405L323.2743765287373 298.12841188850405L325.29231366956685 298.8010576021139L370.35957648142625 417.7312259179874Q372.3775136222558 422.92020713726333 374.07514328041395 426.95608141892234Q375.740742190305 431.0239864488486 376.89384912792184 433.9387845411579L376.89384912792184 433.9387845411579Q377.7907100794016 436.18093691985734 380.8336311647795 437.8785665780155Q383.8765522501574 439.5761962361737 387.1116578251381 440.601180180722Q390.37879414838585 441.59413337700323 392.20454679961256 441.59413337700323L392.20454679961256 441.59413337700323Q393.1014077510923 441.59413337700323 393.1014077510923 445.88625364479935L393.1014077510923 445.88625364479935Q393.1014077510923 446.3346841205393 392.9732847580238 446.8792068410806Q392.8771925132224 447.455760309889 392.65297727535244 448.1284060234988L392.65297727535244 448.1284060234988Q381.3781538853208 447.67997554775894 375.1962194697637 447.32763731682047Q368.9822543059394 447.00732983414906 367.8611781165897 447.00732983414906L367.8611781165897 447.00732983414906L341.7561182788744 448.1284060234988Q340.85925732739463 447.23154507201906 340.95534957219604 444.4128392245112Q341.0834725652645 441.59413337700323 341.98033351674434 441.59413337700323L341.98033351674434 441.59413337700323Q344.6709163711837 441.59413337700323 348.7388214011099 440.4730571876535Q352.774695682769 439.35198099830376 353.44734139637876 437.5582590953441L353.44734139637876 437.5582590953441Q353.67155663424876 436.6293673955973 353.7996796273173 435.7325064441175Q353.8957718721187 434.83564549263764 353.8957718721187 433.9387845411579L353.8957718721187 433.9387845411579Q353.8957718721187 431.0239864488486 353.2231261585089 427.0842044119909Q352.550480444899 423.1444223751333 351.6536194934192 420.8702392481667L351.6536194934192 420.8702392481667L341.5319030410044 392.93942675922466Q340.85925732739463 392.04256580774484 340.1545808655176 392.04256580774484L340.1545808655176 392.04256580774484Q331.3781558403225 391.369920094135 323.0501612908673 391.369920094135L323.0501612908673 391.369920094135Q317.18853435798155 391.369920094135 310.10973899094466 391.7222583250735Q302.9989128756406 392.04256580774484 294.4467030883155 392.4909962834847L294.4467030883155 392.4909962834847L293.32562689896577 393.1636419970946L283.6523409222909 417.95544115585733Q281.3781577953242 423.59285285087316 280.609419836913 427.4045118946623Q279.80865113023464 431.2482016867185 279.80865113023464 433.490354065418L279.80865113023464 433.490354065418Q279.80865113023464 436.6293673955973 281.6023730331942 438.00668957108405L281.6023730331942 438.00668957108405Q283.6523409222909 439.5761962361737 288.1366456796898 440.601180180722Q292.6529811853559 441.59413337700323 294.6709183261854 441.59413337700323L294.6709183261854 441.59413337700323Q295.3435640397953 441.59413337700323 295.4716870328638 444.31674697970976Q295.5677792776652 447.00732983414906 295.1193488019253 448.1284060234988L295.1193488019253 448.1284060234988L271.92908705651934 447.00732983414906Q265.6190296478936 446.5588993584092 259.6613104702065 447.1034220789505Q253.67156054425217 447.67997554775894 248.51461007324338 448.1284060234988ZM315.170597217152 380.5755579281104L315.170597217152 380.5755579281104Q325.29231366956685 380.5755579281104 335.6702761081186 379.90291221450053L335.6702761081186 379.90291221450053L336.3429218217285 378.7498052768837L318.0853953094613 329.0060532180225L298.7388233561116 379.2302665008907Q298.7388233561116 380.12712745237053 299.18725383185154 380.12712745237053L299.18725383185154 380.12712745237053Q305.0488807647373 380.3513426902404 308.98866280159496 380.4474349350418Q312.9284448384526 380.5755579281104 315.170597217152 380.5755579281104ZM429.8086452652294 447.00732983414906L405.27309209260375 448.1284060234988Q404.34420039285686 447.23154507201906 404.34420039285686 444.31674697970976L404.34420039285686 444.31674697970976Q404.34420039285686 441.59413337700323 405.27309209260375 441.59413337700323L405.27309209260375 441.59413337700323Q407.0668139955634 441.59413337700323 410.20582732574263 440.9214876633934Q413.37687140418905 440.2488419497835 416.0674542586284 439.1277657604338Q418.75803711306776 438.00668957108405 418.9822523509377 437.1098286196043L418.9822523509377 437.1098286196043Q419.9111440506847 433.9387845411579 420.231451533356 429.9029102594988Q420.58378976429447 425.83500522957263 420.58378976429447 421.31866972390657L420.58378976429447 421.31866972390657L420.58378976429447 378.7498052768837Q420.58378976429447 370.1975954895585 417.4127456858481 366.6101516836394L417.4127456858481 366.6101516836394Q415.1705933071486 363.66332284306293 411.9995492287022 362.8945848846517Q408.8605358985229 362.0938161779733 406.61838351982345 361.99772393317187Q404.34420039285686 361.86960094010334 404.34420039285686 361.42117046436346L404.34420039285686 361.42117046436346Q404.34420039285686 356.00797400721757 405.7215225683437 355.7837587693476L405.7215225683437 355.7837587693476Q417.63696092371805 353.99003686638804 423.9470183323437 352.7408376839698Q430.25707574096936 351.5236692498186 435.2218417223753 350.4025930604689L435.2218417223753 350.4025930604689L437.9124245768147 349.6979165985919Q438.8092855282945 349.473701360722 439.0335007661645 351.5236692498186Q439.25771600403436 353.54160639064816 439.0335007661645 354.4384673421279L439.0335007661645 354.4384673421279Q438.58507029042454 358.95480284779404 438.2647628077532 362.9906771294531Q437.9124245768147 367.0585821593793 437.9124245768147 370.6460259652984L437.9124245768147 370.6460259652984L437.9124245768147 417.05858020437756Q437.9124245768147 423.59285285087316 438.3608550525546 428.525588084012Q438.8092855282945 433.490354065418 439.7061464797743 437.1098286196043L439.7061464797743 437.1098286196043Q440.1545769555142 438.00668957108405 442.8771905582207 439.1277657604338Q445.56777341266 440.2488419497835 448.7388174911065 440.9214876633934Q451.8778308212858 441.59413337700323 453.22312224850543 441.59413337700323L453.22312224850543 441.59413337700323Q453.8957679621153 441.59413337700323 454.1199831999852 444.31674697970976Q454.3441984378552 447.00732983414906 453.8957679621153 448.1284060234988L453.8957679621153 448.1284060234988L429.8086452652294 447.00732983414906ZM427.56649288653 325.16236342596625L427.56649288653 325.16236342596625Q423.0501573808639 325.16236342596625 419.6869288128147 321.799134857917Q416.29166949649834 318.40387554160066 416.29166949649834 313.8875400359346L416.29166949649834 313.8875400359346Q416.29166949649834 309.1790200406657 419.6869288128147 305.91188371741794Q423.0501573808639 302.6447473941701 427.56649288653 302.6447473941701L427.56649288653 302.6447473941701Q432.2750128817989 302.6447473941701 435.5421492050467 305.91188371741794Q438.8092855282945 309.1790200406657 438.8092855282945 313.8875400359346L438.8092855282945 313.8875400359346Q438.8092855282945 318.40387554160066 435.5421492050467 321.799134857917Q432.2750128817989 325.16236342596625 427.56649288653 325.16236342596625Z " fill=" #78BE21" transform="matrix(0.6784644759093282,0,0,0.6784644759093282,0,46.845601511309084)"/><path d="M601.7583315840234 447.4893420513185L601.7583315840234 447.4893420513185Q600.9062317824432 446.6372422497385 600.9062317824432 444.2939677953934L600.9062317824432 444.2939677953934Q600.9062317824432 441.28118635409265 601.7583315840234 441.28118635409265L601.7583315840234 441.28118635409265Q604.3146309887634 441.28118635409265 608.3925371820392 440.2160616021176Q612.4400112395442 439.1509368501426 613.96161802808 437.23371229658756L613.96161802808 437.23371229658756Q616.3048924824251 434.2209308552867 618.7698954798531 429.2909248604309Q621.2348984772809 424.39135100134575 624.004222832416 417.11807055214484L624.004222832416 417.11807055214484L661.2227248800007 321.46986782478723Q662.5313067181414 318.2440614330915 662.8356280758485 316.9659117307214Q663.1703815693263 315.68776202835136 663.4747029270336 314.71393368368854Q663.8094564205114 313.77053747479636 664.8745811724864 311.3968308846806L664.8745811724864 311.3968308846806Q666.3657558252514 308.41448157915045 667.8569304780165 306.7102819759905Q669.3785372665523 304.97565023705965 672.7869364728724 304.97565023705965L672.7869364728724 304.97565023705965L674.7041610264274 305.6147250882447L717.5221760558236 418.6092452049099Q719.4394006093786 423.5392511997657 721.0523038052265 427.37370030687583Q722.6347748653037 431.23858154975665 723.7303317530494 434.00790590489174L723.7303317530494 434.00790590489174Q724.5824315546295 436.1381554088418 727.4734844528474 437.7510586046897Q730.3645373510653 439.3639618005376 733.4381830639076 440.3377901452005Q736.5422609125205 441.28118635409265 738.2768926514512 441.28118635409265L738.2768926514512 441.28118635409265Q739.1289924530313 441.28118635409265 739.1289924530313 445.35909254736845L739.1289924530313 445.35909254736845Q739.1289924530313 445.78514244815847 739.0072639099484 446.30248875626063Q738.9159675026362 446.8502672001335 738.7029425522412 447.4893420513185L738.7029425522412 447.4893420513185Q727.9908307609496 447.0632921505285 722.1174285572015 446.72853865705065Q716.2135942176828 446.4242172993435 715.1484694657078 446.4242172993435L715.1484694657078 446.4242172993435L690.346278812575 447.4893420513185Q689.4941790109949 446.6372422497385 689.5854754183072 443.95921430191555Q689.70720396139 441.28118635409265 690.55930376297 441.28118635409265L690.55930376297 441.28118635409265Q693.1156031677101 441.28118635409265 696.9804844105909 440.2160616021176Q700.814933517701 439.1509368501426 701.454008368886 437.44673724698254L701.454008368886 437.44673724698254Q701.667033319281 436.5642053096318 701.7887618623638 435.7121055080518Q701.880058269676 434.8600057064718 701.880058269676 434.00790590489174L701.880058269676 434.00790590489174Q701.880058269676 431.23858154975665 701.2409834184909 427.4954288499587Q700.6019085673059 423.75227615016075 699.7498087657259 421.59159451043996L699.7498087657259 421.59159451043996L690.13325386218 395.0547721183764Q689.4941790109949 394.2026723167964 688.8246720240393 394.2026723167964L688.8246720240393 394.2026723167964Q680.4862668228633 393.56359746561134 672.5739115224774 393.56359746561134L672.5739115224774 393.56359746561134Q667.0048306764365 393.56359746561134 660.2793286711085 393.8983509590892Q653.5233945300097 394.2026723167964 645.3980142792287 394.62872221758636L645.3980142792287 394.62872221758636L644.3328895272537 395.2677970687714L635.1423845244977 418.8222701553049Q632.981702884777 424.1783260509507 632.2513316262798 427.79975020766585Q631.4905282320119 431.4516065001516 631.4905282320119 433.5818560041017L631.4905282320119 433.5818560041017Q631.4905282320119 436.5642053096318 633.194727835172 437.87278714777256L633.194727835172 437.87278714777256Q635.1423845244977 439.3639618005376 639.4028835323979 440.3377901452005Q643.6938146760688 441.28118635409265 645.6110392296238 441.28118635409265L645.6110392296238 441.28118635409265Q646.2501140808088 441.28118635409265 646.3718426238917 443.8679178946034Q646.4631390312038 446.4242172993435 646.0370891304137 447.4893420513185L646.0370891304137 447.4893420513185L624.004222832416 446.4242172993435Q618.0090920855852 445.99816739855345 612.3487148322322 446.51551370665567Q606.6579054431083 447.0632921505285 601.7583315840234 447.4893420513185ZM665.0876061228814 383.30796771088035L665.0876061228814 383.30796771088035Q674.7041610264274 383.30796771088035 684.5641730161391 382.66889285969535L684.5641730161391 382.66889285969535L685.2032478673241 381.5733359719496L667.8569304780165 334.31222912002903L649.4759204725046 382.02981800851035Q649.4759204725046 382.88191781009033 649.9019703732946 382.88191781009033L649.9019703732946 382.88191781009033Q655.4710512193354 383.09494276048537 659.2142039191334 383.1862391677975Q662.9573566189314 383.30796771088035 665.0876061228814 383.30796771088035ZM777.6256442029859 446.4242172993435L751.971353748273 447.4893420513185Q751.119253946693 446.6372422497385 751.119253946693 444.2939677953934L751.119253946693 444.2939677953934Q751.119253946693 441.28118635409265 751.971353748273 441.28118635409265L751.971353748273 441.28118635409265Q753.8885783018281 441.28118635409265 757.0839525577532 440.7638400459905Q760.3097589494489 440.2160616021176 763.0790833045841 439.1509368501426Q765.8788397954899 438.08581209816754 766.3048896962798 437.0206873461926L766.3048896962798 437.0206873461926Q767.1569894978599 434.00790590489174 767.461310855567 429.2909248604309Q767.7960643490449 424.6043759517408 767.7960643490449 417.9701703537249L767.7960643490449 417.9701703537249L767.7960643490449 334.95130397121403Q767.7960643490449 328.3170983731982 767.461310855567 323.4783887856545Q767.1569894978599 318.6701113338815 766.3048896962798 315.9007869787464L766.3048896962798 315.9007869787464Q765.8788397954899 314.62263727637634 763.0790833045841 313.64880893171346Q760.3097589494489 312.6749805870506 757.0839525577532 312.0359057358656Q753.8885783018281 311.3968308846806 751.971353748273 311.3968308846806L751.971353748273 311.3968308846806Q751.119253946693 311.3968308846806 751.119253946693 308.6275065295455L751.119253946693 308.6275065295455Q751.119253946693 306.04077498903473 751.971353748273 305.1886751874547L751.971353748273 305.1886751874547L777.6256442029859 306.2537999394297Q779.3602759419166 306.2537999394297 785.5684316391425 305.9494785817226Q791.7765873363684 305.6147250882447 802.4582669918893 305.1886751874547L802.4582669918893 305.1886751874547Q802.8843168926794 306.92330692638546 802.8843168926794 308.41448157915045L802.8843168926794 308.41448157915045Q802.8843168926794 311.3968308846806 802.0322170910994 311.3968308846806L802.0322170910994 311.3968308846806Q800.7540673887294 311.3968308846806 797.5282609970336 312.1576342789484Q794.3328867411085 312.88800553744557 791.5331302502027 313.8618338821085Q788.7638058950677 314.8356622267714 788.3377559942776 315.9007869787464L788.3377559942776 315.9007869787464Q786.4205314407225 323.1740674279473 786.4205314407225 335.80340377279407L786.4205314407225 335.80340377279407L786.4205314407225 417.11807055214484Q786.4205314407225 429.5039498108259 788.3377559942776 437.0206873461926L788.3377559942776 437.0206873461926Q788.7638058950677 437.87278714777256 791.5331302502027 438.9379118997476Q794.3328867411085 440.0030366517226 797.5282609970336 440.64211150290765Q800.7540673887294 441.28118635409265 802.0322170910994 441.28118635409265L802.0322170910994 441.28118635409265Q802.8843168926794 441.28118635409265 802.8843168926794 444.5069927457884L802.8843168926794 444.5069927457884Q802.8843168926794 445.78514244815847 802.4582669918893 447.4893420513185L802.4582669918893 447.4893420513185Q791.7765873363684 447.0632921505285 785.5684316391425 446.72853865705065Q779.3602759419166 446.4242172993435 777.6256442029859 446.4242172993435L777.6256442029859 446.4242172993435ZM937.2726284561572 448.12841690250355L937.2726284561572 448.12841690250355Q923.1521174585455 448.12841690250355 910.8271024714059 442.55933605646266Q898.532519620037 437.0206873461926 889.2202860741982 427.37370030687583Q879.9080525283593 417.75714540332984 874.6737251757963 405.00608051540024Q869.4393978232333 392.28544776324134 869.4393978232333 377.9519118152345L869.4393978232333 377.9519118152345Q869.4393978232333 362.7662760656477 874.7954537188792 349.376136326533Q880.1210774787544 336.0164287231891 889.768064518071 325.8520953757702Q899.3846194216169 315.68776202835136 912.1356843095466 309.90565623191554Q924.8563170617056 304.1235504354797 939.6159029105023 304.1235504354797L939.6159029105023 304.1235504354797Q952.2452392553491 304.1235504354797 965.3006255009859 305.40170013784973Q978.3560117466227 306.7102819759905 991.6244229426545 309.4796063311255L991.6244229426545 309.4796063311255L991.1983730418644 340.2769277310892Q991.1983730418644 343.502734122785 986.6944169477987 343.502734122785L986.6944169477987 343.502734122785Q984.5641674438486 343.502734122785 983.9250925926635 342.43760937081L983.9250925926635 342.43760937081Q983.2555856057078 339.6378528799042 982.3121893968157 336.74679998168625Q981.3383610521528 333.8557470834683 978.3560117466227 329.16919817477816L978.3560117466227 329.16919817477816Q973.2129808013718 321.68289277518227 963.6877223051381 317.39196163151144Q954.1624638089042 313.1010304878406 940.2549777616874 313.1010304878406L940.2549777616874 313.1010304878406Q929.7863230565615 313.1010304878406 920.5653859180347 318.15276502577933Q911.3748809152787 323.1740674279473 904.405921823785 331.7254975795183Q897.467394868062 340.2769277310892 893.6025136251812 351.1107680654638Q889.768064518071 361.91417626406763 889.768064518071 373.4479557211687L889.768064518071 373.4479557211687Q889.768064518071 391.2203230112663 895.7631952649019 405.3408340088781L895.7631952649019 405.3408340088781Q901.7583260117328 419.8873949072799 914.6919837142866 429.41265340351373Q927.6256414168406 438.9379118997476 945.3980087069383 438.9379118997476L945.3980087069383 438.9379118997476Q966.5787752033559 438.9379118997476 978.1429867962277 426.5216005052958L978.1429867962277 426.5216005052958Q981.5513860025478 422.86974421281 983.4990426918735 417.9701703537249Q985.4162672454286 413.04016435886905 986.4813919974036 409.4187402021539Q987.5465167493787 405.76688390966814 988.6116415013537 405.76688390966814L988.6116415013537 405.76688390966814Q989.8897912037237 405.76688390966814 991.7157193499667 406.10163740314596Q993.5416474962095 406.40595876085314 994.6067722481846 407.04503361203814L994.6067722481846 407.04503361203814L995.6718970001596 407.68410846322314Q995.6718970001596 408.9622581655932 994.8197971985796 413.67923921005405Q993.9676973969995 418.39622025451484 992.6895476946295 424.0565975078679Q991.4113979922595 429.7169747612209 990.2245446972015 434.00790590489174Q989.0376914021437 438.2988370485626 988.3986165509586 438.72488694935254L988.3986165509586 438.72488694935254Q972.5739059501868 448.12841690250355 937.2726284561572 448.12841690250355ZM1028.416875089449 446.4242172993435L1005.1058590890813 447.4893420513185Q1004.2537592875012 446.6372422497385 1004.2537592875012 443.8679178946034L1004.2537592875012 443.8679178946034Q1004.2537592875012 441.28118635409265 1005.1058590890813 441.28118635409265L1005.1058590890813 441.28118635409265Q1006.8100586922412 441.28118635409265 1009.7924079977715 440.64211150290765Q1012.8051894390721 440.0030366517226 1015.3614888438123 438.9379118997476Q1017.948220384323 437.87278714777256 1018.1612453347182 437.0206873461926L1018.1612453347182 437.0206873461926Q1019.6524199874831 431.23858154975665 1019.6524199874831 422.23066936162496L1019.6524199874831 422.23066936162496L1019.6524199874831 329.3822231251732Q1019.6524199874831 322.1089426759723 1018.3742702851131 315.68776202835136L1018.3742702851131 315.68776202835136Q1017.4917383477623 312.24893068626056 1007.4491335434263 312.24893068626056L1007.4491335434263 312.24893068626056L1005.5319089898712 312.24893068626056Q1004.2537592875012 312.24893068626056 1004.2537592875012 309.90565623191554L1004.2537592875012 309.90565623191554Q1004.2537592875012 306.4668248898247 1005.5319089898712 306.4668248898247L1005.5319089898712 306.4668248898247Q1016.4266135957873 305.40170013784973 1023.9129189953832 302.93669714042176Q1031.42965653075 300.50212627876454 1034.1989808858848 298.9805194902288L1034.1989808858848 298.9805194902288L1035.2641056378598 298.3414446390438L1035.6901555386498 298.3414446390438Q1036.54225534023 298.3414446390438 1037.3943551418101 299.5282979341017Q1038.2768870791608 300.7151512291596 1038.4899120295559 301.7802759811346L1038.4899120295559 301.7802759811346Q1036.11620543944 308.8405314799405 1036.11620543944 320.40474307281227L1036.11620543944 320.40474307281227L1036.11620543944 367.2398000239428Q1036.11620543944 368.09189982552283 1036.54225534023 368.09189982552283L1036.54225534023 368.09189982552283Q1036.755280290625 368.09189982552283 1037.1813301914149 367.6658499247328L1037.1813301914149 367.6658499247328Q1040.407136583111 364.2574507184127 1045.4284389852787 360.94034791940476Q1050.4497413874467 357.6232451203968 1056.2318471838826 355.37126707336387Q1062.0139529803187 353.119289026331 1067.1569839255694 353.119289026331L1067.1569839255694 353.119289026331Q1081.4905198735762 353.119289026331 1087.6986755708022 363.4053509168327Q1093.9068312680279 373.66098067156366 1093.9068312680279 395.0547721183764L1093.9068312680279 395.0547721183764L1093.9068312680279 418.18319530411986Q1093.9068312680279 424.1783260509507 1094.332881168818 428.8648749596409Q1094.758931069608 433.5818560041017 1095.611030871188 437.0206873461926L1095.611030871188 437.0206873461926Q1096.037080771978 437.87278714777256 1098.593380176718 438.9379118997476Q1101.180111717229 440.0030366517226 1104.162461022759 440.64211150290765Q1107.1752424640597 441.28118635409265 1108.4533921664297 441.28118635409265L1108.4533921664297 441.28118635409265Q1109.0924670176148 441.28118635409265 1109.3054919680098 443.8679178946034Q1109.5185169184047 446.4242172993435 1109.0924670176148 447.4893420513185L1109.0924670176148 447.4893420513185L1086.207500918037 446.4242172993435L1063.7181525834785 447.4893420513185Q1062.8660527818986 446.6372422497385 1062.8660527818986 443.8679178946034L1062.8660527818986 443.8679178946034Q1062.8660527818986 441.28118635409265 1063.7181525834785 441.28118635409265L1063.7181525834785 441.28118635409265Q1065.4223521866386 441.28118635409265 1068.2221086775444 440.64211150290765Q1070.9914330326794 440.0030366517226 1073.3651396227951 438.9379118997476Q1075.7084140771403 437.87278714777256 1075.9214390275354 437.0206873461926L1075.9214390275354 437.0206873461926Q1076.7735388291153 434.00790590489174 1077.1082923225931 430.1734567977816Q1077.4126136803004 426.3085755549008 1077.4126136803004 422.01764441123L1077.4126136803004 422.01764441123L1077.4126136803004 399.3457032620472Q1077.4126136803004 386.07729206601545 1075.0693392259554 378.9257401598974Q1072.7260647716103 371.7437561180086 1067.7960587767543 368.97443176287356Q1062.8660527818986 366.1746752719677 1055.1667224319076 366.1746752719677L1055.1667224319076 366.1746752719677Q1050.8757912882368 366.1746752719677 1046.493563737254 368.6396782693957Q1042.1113361862708 371.1046812668236 1039.1289868807407 374.30005552274866Q1036.11620543944 377.5258619144445 1036.11620543944 380.08216131918454L1036.11620543944 380.08216131918454L1036.11620543944 417.9701703537249Q1036.11620543944 424.1783260509507 1036.54225534023 428.8648749596409Q1036.96830524102 433.5818560041017 1037.8204050426 437.0206873461926L1037.8204050426 437.0206873461926Q1038.2768870791608 437.87278714777256 1040.8331864839008 438.9379118997476Q1043.3894858886408 440.0030366517226 1046.4022673299417 440.64211150290765Q1049.3846166354717 441.28118635409265 1050.6627663378417 441.28118635409265L1050.6627663378417 441.28118635409265Q1051.3018411890268 441.28118635409265 1051.5148661394219 443.8679178946034Q1051.727891089817 446.4242172993435 1051.3018411890268 447.4893420513185L1051.3018411890268 447.4893420513185L1028.416875089449 446.4242172993435ZM1164.9354361568771 448.12841690250355L1164.9354361568771 448.12841690250355Q1153.1581996136101 448.12841690250355 1143.3286197596694 441.92026120527765Q1133.4686077699575 435.7121055080518 1127.5952055662096 425.33474721023794Q1121.7218033624617 414.95738891242405 1121.7218033624617 402.1150276171823L1121.7218033624617 402.1150276171823Q1121.7218033624617 387.14241681799047 1127.2908842085023 376.2477122120745Q1132.8295329187727 365.32257547038773 1142.4765199580893 359.4491732666397Q1152.0930748616352 353.545338927121 1164.083336355297 353.545338927121L1164.083336355297 353.545338927121Q1173.912916209238 353.545338927121 1181.399221608834 357.2884916269189Q1188.9159591442003 361.0316443267169 1192.9634332017056 366.8137501231528L1192.9634332017056 366.8137501231528Q1196.8283144445863 372.8088808699836 1198.6238104550584 378.9257401598974Q1200.4497386013013 385.0121673140404 1200.4497386013013 391.0072980608713L1200.4497386013013 391.0072980608713Q1200.4497386013013 395.2677970687714 1199.1715888989315 396.2416254134343Q1197.8934391965615 397.21545375809717 1194.2415829040756 397.21545375809717L1194.2415829040756 397.21545375809717L1140.3158383183686 397.21545375809717Q1138.6116387152083 397.21545375809717 1138.6116387152083 398.2805785100722L1138.6116387152083 398.2805785100722Q1138.6116387152083 407.2580585624332 1142.2634950076942 415.5051673562969Q1145.8849191644094 423.75227615016075 1152.9451746632153 429.07789991003585Q1160.0054301620212 434.4339558056817 1170.2914920525227 434.4339558056817L1170.2914920525227 434.4339558056817Q1179.2689721048837 434.4339558056817 1185.3553992590269 431.7559278578588Q1191.4722585489405 429.07789991003585 1194.2415829040756 426.9476504060858L1194.2415829040756 426.9476504060858L1195.7631896926114 425.8825256541108Q1197.0413393949816 425.8825256541108 1197.0413393949816 428.65185000924583L1197.0413393949816 428.65185000924583Q1197.0413393949816 430.1734567977816 1195.7631896926114 432.5167312521267L1195.7631896926114 432.5167312521267Q1191.4722585489405 438.51186199895756 1183.1338533477647 443.32013945073055Q1174.7650160108178 448.12841690250355 1164.9354361568771 448.12841690250355ZM1140.3158383183686 388.2075415699655L1140.3158383183686 388.2075415699655L1182.0687285957897 388.2075415699655Q1183.1338533477647 388.2075415699655 1183.1338533477647 386.07729206601545L1183.1338533477647 386.07729206601545Q1183.1338533477647 381.3603110215546 1180.6688503503367 375.69993376820156Q1178.2038473529087 370.0395565148486 1173.273841358053 365.74862537117775Q1168.3742674989678 361.4881263632776 1160.8575299636013 361.4881263632776L1160.8575299636013 361.4881263632776Q1154.0102994151903 361.4881263632776 1149.110725556105 366.08337886465563Q1144.1807195612494 370.6786313660336 1141.6244201565091 376.5520335697816Q1139.0376886159984 382.45586790930037 1139.0376886159984 386.71636691720045L1139.0376886159984 386.71636691720045Q1139.0376886159984 388.2075415699655 1140.3158383183686 388.2075415699655ZM1234.6858913433562 446.4242172993435L1212.2269751445683 447.4893420513185Q1211.5879002933834 446.8502672001335 1211.4661717503004 444.08094284499845Q1211.3748753429882 441.28118635409265 1212.2269751445683 441.28118635409265L1212.2269751445683 441.28118635409265Q1213.9311747477282 441.28118635409265 1216.7309312386342 440.64211150290765Q1219.500255593769 440.0030366517226 1221.9652585911972 438.9379118997476Q1224.430261588625 437.87278714777256 1224.64328653902 437.0206873461926L1224.64328653902 437.0206873461926Q1225.7084112909952 432.7297562025217 1226.225757599097 428.01277515806083Q1226.7735360429701 423.3262262493707 1226.7735360429701 417.9701703537249L1226.7735360429701 417.9701703537249L1226.7735360429701 368.7614068124785Q1226.7735360429701 367.2398000239428 1225.7084112909952 367.2398000239428L1225.7084112909952 367.2398000239428L1214.3572246485182 367.2398000239428Q1213.7181497973334 367.2398000239428 1213.7181497973334 365.9616503215728L1213.7181497973334 365.9616503215728Q1213.7181497973334 364.0444257680177 1217.0352525963413 360.6055944259269Q1220.3523553953492 357.1971952196068 1224.430261588625 357.1971952196068L1224.430261588625 357.1971952196068L1225.7084112909952 357.1971952196068Q1226.7735360429701 357.1971952196068 1226.7735360429701 355.9190455172368L1226.7735360429701 355.9190455172368L1226.7735360429701 353.119289026331Q1226.7735360429701 341.7985345196249 1230.4253923354559 331.93852252991326Q1234.046816492171 322.1089426759723 1240.133243646314 314.40961232598136Q1246.250102936228 306.7102819759905 1253.8277047431359 302.4193508323196Q1261.4357386858146 298.1284196886488 1269.3480939862006 298.1284196886488L1269.3480939862006 298.1284196886488Q1284.9902117723482 298.1284196886488 1289.676760681038 306.4668248898247L1289.676760681038 306.4668248898247Q1289.676760681038 319.9482610362515 1281.9774303310473 319.9482610362515L1281.9774303310473 319.9482610362515Q1279.6341558767022 319.9482610362515 1277.6864991873765 317.9397400753843Q1275.7692746338214 315.9007869787464 1273.7303215371835 313.2227590309235Q1271.7218005763164 310.54473108310054 1269.0437726284936 308.5057779864626Q1266.3657446806706 306.4668248898247 1262.7138883881846 306.4668248898247L1262.7138883881846 306.4668248898247Q1256.5057326909587 306.4668248898247 1252.0322087326635 311.8228807854706Q1247.5282526385977 317.1789366811164 1245.2762745915647 325.9433917830824Q1243.0242965445318 334.73827902081905 1243.0242965445318 345.206933725945L1243.0242965445318 345.206933725945L1243.0242965445318 356.13207046763176Q1243.0242965445318 357.1971952196068 1244.1198534322778 357.1971952196068L1244.1198534322778 357.1971952196068L1267.8569193334356 357.1971952196068Q1268.9220440854106 357.1971952196068 1268.9220440854106 358.6883698723718L1268.9220440854106 358.6883698723718Q1268.9220440854106 362.1272012144627 1266.3657446806706 367.2398000239428L1266.3657446806706 367.2398000239428L1244.3328783826728 367.2398000239428Q1243.0242965445318 367.2398000239428 1243.0242965445318 368.54838186208355L1243.0242965445318 368.54838186208355L1243.0242965445318 417.9701703537249Q1243.0242965445318 429.5039498108259 1244.9719532338577 437.0206873461926L1244.9719532338577 437.0206873461926Q1245.3980031346478 437.87278714777256 1247.741277588993 438.9379118997476Q1250.084552043338 440.0030366517226 1252.8843085342437 440.64211150290765Q1255.6536328893787 441.28118635409265 1256.9317825917487 441.28118635409265L1256.9317825917487 441.28118635409265Q1257.6012895787044 441.28118635409265 1257.8143145290994 443.8679178946034Q1258.0273394794945 446.4242172993435 1257.6012895787044 447.4893420513185L1257.6012895787044 447.4893420513185L1234.6858913433562 446.4242172993435Z " fill="#FFFF" transform="matrix(0.6784644759093282,0,0,0.6784644759093282,0,46.845601511309084)"/></g></svg>